<?xml version="1.0" encoding="UTF-8"?>
<svg width="31px" height="21px" viewBox="0 0 31 21" version="1.1" xmlns="http://www.w3.org/2000/svg" xmlns:xlink="http://www.w3.org/1999/xlink">
    <!-- Generator: Sketch 50.2 (55047) - http://www.bohemiancoding.com/sketch -->
    <title>Combined Shape</title>
    <desc>Created with Sketch.</desc>
    <defs></defs>
    <g id="Page-1" stroke="none" stroke-width="1" fill="none" fill-rule="evenodd">
        <g id="correct" transform="translate(-273.000000, -549.000000)" fill="#FFFFFF">
            <path d="M286,563.131579 L276.035605,569.16266 C275.090646,569.734609 273.860949,569.432224 273.289,568.487265 C273.099945,568.174914 273,567.81677 273,567.45166 L273,551.54834 C273,550.443771 273.895431,549.54834 275,549.54834 C275.36511,549.54834 275.723254,549.648285 276.035605,549.83734 L286,555.868421 L286,551.54834 C286,550.443771 286.895431,549.54834 288,549.54834 C288.36511,549.54834 288.723254,549.648285 289.035605,549.83734 L302.17313,557.789 C303.118089,558.360949 303.420474,559.590646 302.848525,560.535605 C302.681245,560.811981 302.449505,561.04372 302.17313,561.211 L289.035605,569.16266 C288.090646,569.734609 286.860949,569.432224 286.289,568.487265 C286.099945,568.174914 286,567.81677 286,567.45166 L286,563.131579 Z" id="Combined-Shape"></path>
        </g>
    </g>
</svg>