<?xml version="1.0" encoding="UTF-8"?>
<svg width="24px" height="27px" viewBox="0 0 24 27" version="1.1" xmlns="http://www.w3.org/2000/svg" xmlns:xlink="http://www.w3.org/1999/xlink">
    <!-- Generator: Sketch 50.2 (55047) - http://www.bohemiancoding.com/sketch -->
    <title>Combined Shape</title>
    <desc>Created with Sketch.</desc>
    <defs></defs>
    <g id="Page-1" stroke="none" stroke-width="1" fill="none" fill-rule="evenodd">
        <g id="main_input" transform="translate(-242.000000, -287.000000)" fill="#4A90E2" fill-rule="nonzero">
            <g id="Group-5" transform="translate(114.750000, 280.000000)">
                <path d="M141.853577,13.9061559 L141.853577,15.7829203 C141.853577,16.14803 141.753632,16.5061742 141.564577,16.8185256 C140.992628,17.7634849 139.762931,18.0658695 138.817972,17.4939204 L133.21469,14.1024603 C132.938314,13.9351806 132.706575,13.7034407 132.539295,13.4270655 C131.967346,12.4821062 132.26973,11.252409 133.21469,10.68046 L138.817972,7.28899984 C139.130323,7.09994502 139.488467,7 139.853577,7 C140.958146,7 141.853577,7.8954305 141.853577,9 L141.853577,10.795971 C146.950741,11.975713 150.75,16.5441742 150.75,22 C150.75,28.3512746 145.601275,33.5 139.25,33.5 C132.898725,33.5 127.75,28.3512746 127.75,22 C127.75,21.1715729 128.421573,20.5 129.25,20.5 C130.078427,20.5 130.75,21.1715729 130.75,22 C130.75,26.6944204 134.55558,30.5 139.25,30.5 C143.94442,30.5 147.75,26.6944204 147.75,22 C147.75,18.2137428 145.274419,15.0056884 141.853577,13.9061559 Z" id="Combined-Shape"></path>
            </g>
        </g>
    </g>
</svg>