<?xml version="1.0" encoding="UTF-8"?>
<svg width="22px" height="18px" viewBox="0 0 22 18" version="1.1" xmlns="http://www.w3.org/2000/svg" xmlns:xlink="http://www.w3.org/1999/xlink">
    <!-- Generator: Sketch 50.2 (55047) - http://www.bohemiancoding.com/sketch -->
    <title>Combined Shape</title>
    <desc>Created with Sketch.</desc>
    <defs></defs>
    <g id="Page-1" stroke="none" stroke-width="1" fill="none" fill-rule="evenodd">
        <g id="main_playing" transform="translate(-242.000000, -291.000000)" fill="#4A90E2">
            <g id="Group-5" transform="translate(114.750000, 280.000000)">
                <g id="Group-6" transform="translate(128.000000, 10.000000)">
                    <path d="M1.14556762,11.2110657 C0.869192415,11.043786 0.637452556,10.8120461 0.470172825,10.5356709 C-0.101776222,9.59071159 0.20060833,8.36101442 1.14556762,7.78906537 L6.74884958,4.39760524 C7.06120103,4.20855042 7.41934515,4.1086054 7.78445494,4.1086054 C8.88902444,4.1086054 9.78445494,5.0040359 9.78445494,6.1086054 L9.78445494,12.8915257 C9.78445494,13.2566354 9.68450992,13.6147796 9.49545509,13.927131 C8.92350605,14.8720903 7.69380887,15.1744749 6.74884958,14.6025258 L1.14556762,11.2110657 Z M12.0349593,13.7902441 C11.4826746,13.7902441 11.0349593,13.3425288 11.0349593,12.7902441 C11.0349593,12.2379593 11.4826746,11.7902441 12.0349593,11.7902441 C13.1009138,11.7902441 13.9650407,10.9261172 13.9650407,9.86016271 C13.9650407,8.79420821 13.1009138,7.93008136 12.0349593,7.93008136 C11.4826746,7.93008136 11.0349593,7.48236611 11.0349593,6.93008136 C11.0349593,6.37779661 11.4826746,5.93008136 12.0349593,5.93008136 C14.2054833,5.93008136 15.9650407,7.68963871 15.9650407,9.86016271 C15.9650407,12.0306867 14.2054833,13.7902441 12.0349593,13.7902441 Z M11.5611788,18.7378051 C11.0088941,18.7378051 10.5611788,18.2900898 10.5611788,17.7378051 C10.5611788,17.1855203 11.0088941,16.7378051 11.5611788,16.7378051 C15.3595958,16.7378051 18.4388212,13.6585797 18.4388212,9.86016271 C18.4388212,6.06174572 15.3595958,2.98252034 11.5611788,2.98252034 C11.0088941,2.98252034 10.5611788,2.53480509 10.5611788,1.98252034 C10.5611788,1.43023559 11.0088941,0.982520339 11.5611788,0.982520339 C16.4641653,0.982520339 20.4388212,4.95717622 20.4388212,9.86016271 C20.4388212,14.7631492 16.4641653,18.7378051 11.5611788,18.7378051 Z" id="Combined-Shape"></path>
                </g>
            </g>
        </g>
    </g>
</svg>